<svg xmlns="http://www.w3.org/2000/svg" xmlns:xlink="http://www.w3.org/1999/xlink" width="40" height="40" viewBox="0 0 40 40"><defs><style>.a{fill:#f3f3f5;}.b{stroke:rgba(0,0,0,0);stroke-miterlimit:10;fill:url(#a);}</style><linearGradient id="a" x1="0.5" x2="0.5" y2="1" gradientUnits="objectBoundingBox"><stop offset="0" stop-color="#a3b2e2"/><stop offset="1" stop-color="#7e90d7"/></linearGradient></defs><g transform="translate(-36 -1279)"><circle class="a" cx="20" cy="20" r="20" transform="translate(36 1279)"/><path class="b" d="M146.2,137.276c0-5.592-3.008-7.494-5.821-7.918,0-.029.006-.057.006-.092A1.329,1.329,0,0,0,139,128a1.308,1.308,0,0,0-1.364,1.266.464.464,0,0,0,.006.092c-2.819.43-5.844,2.338-5.844,7.929,0,6.52-1.621,7.219-3.8,9.052h22C147.834,144.5,146.2,143.8,146.2,137.276ZM139.012,150a2.965,2.965,0,0,0,2.962-2.464H136.05A2.961,2.961,0,0,0,139.012,150Z" transform="translate(-83 1160)"/></g></svg>
