<svg xmlns="http://www.w3.org/2000/svg" width="46" height="46" viewBox="0 0 46 46"><defs><style>.a,.b,.c{fill:none;}.b,.c{stroke:#29c86f;stroke-linecap:round;stroke-width:3px;}.b{stroke-linejoin:round;}</style></defs><g transform="translate(-48 -117)"><rect class="a" width="46" height="46" transform="translate(48 117)"/><g transform="translate(-194.981 -1.443)"><path class="b" d="M2602.012-5235.385c-.223,0-.5-.021-1.689.794a19.775,19.775,0,0,1-8.815,3.655c-1.54.292-2.958.118-2.958,2.9v10.678s.707,9.981,13.462,13.633c4.765-.809,13.448-7.251,13.4-13.633s0-10.678,0-10.678a2.788,2.788,0,0,0-2.925-2.9,14.736,14.736,0,0,1-8.767-3.655C2602.684-5235.489,2602.235-5235.385,2602.012-5235.385Z" transform="translate(-2336 5361)"/><path class="c" d="M2596.449-5219.5h11.6" transform="translate(-2336.267 5361)"/><path class="c" d="M2596.449-5219.5h11.6" transform="translate(-4953.519 -2460.806) rotate(90)"/></g></g></svg>
